HIERARCHY
ROOT reference
{
  OFFSET -65.3212 -1.93545 -120.338
  CHANNELS 6 Xposition Yposition Zposition Zrotation Xrotation Yrotation
  JOINT Hips
  {
    OFFSET 0 78.7191 0
    CHANNELS 6 Xposition Yposition Zposition Zrotation Xrotation Yrotation
    JOINT Chest
    {
      OFFSET 0 8.7983 -4.7612
      CHANNELS 6 Xposition Yposition Zposition Zrotation Xrotation Yrotation
      JOINT Chest2
      {
        OFFSET 0 8.0291 0.4195
        CHANNELS 6 Xposition Yposition Zposition Zrotation Xrotation Yrotation
        JOINT Chest3
        {
          OFFSET 0 9.9351 -2.2114
          CHANNELS 6 Xposition Yposition Zposition Zrotation Xrotation Yrotation
          JOINT Neck
          {
            OFFSET 0 22.3885 -0.4656
            CHANNELS 6 Xposition Yposition Zposition Zrotation Xrotation Yrotation
            JOINT Head
            {
              OFFSET -0.0001 12.643 3.4389
              CHANNELS 6 Xposition Yposition Zposition Zrotation Xrotation Yrotation
              End Site
              {
                OFFSET 0.0001 17.6655 0.5274
              }
            }
          }
          JOINT LeftCollar
          {
            OFFSET 2.2603 21.606 7.4023
            CHANNELS 6 Xposition Yposition Zposition Zrotation Xrotation Yrotation
            JOINT LeftShoulder
            {
              OFFSET 13.5163 -1.1332 -5.0146
              CHANNELS 6 Xposition Yposition Zposition Zrotation Xrotation Yrotation
              JOINT LeftElbow
              {
                OFFSET -0.0995 -28.05 -0.2431
                CHANNELS 6 Xposition Yposition Zposition Zrotation Xrotation Yrotation
                JOINT LeftWrist
                {
                  OFFSET 0.0679 -23.3996 -0.1402
                  CHANNELS 6 Xposition Yposition Zposition Zrotation Xrotation Yrotation
                  JOINT LeftFinger1
                  {
                    OFFSET 0.7932 -9.069 2.5189
                    CHANNELS 6 Xposition Yposition Zposition Zrotation Xrotation Yrotation
                    JOINT LeftFinger11
                    {
                      OFFSET -0.8272 -3.3923 0.5977
                      CHANNELS 6 Xposition Yposition Zposition Zrotation Xrotation Yrotation
                      JOINT LeftFinger12
                      {
                        OFFSET -0.5649 -2.3158 0.4082
                        CHANNELS 6 Xposition Yposition Zposition Zrotation Xrotation Yrotation
                        End Site
                        {
                          OFFSET -0.4919 -1.6479 0.2673
                        }
                      }
                    }
                  }
                  JOINT LeftFinger2
                  {
                    OFFSET 0.9159 -9.2044 0.2193
                    CHANNELS 6 Xposition Yposition Zposition Zrotation Xrotation Yrotation
                    JOINT LeftFinger21
                    {
                      OFFSET 0.0117 -4.1944 -0.0248
                      CHANNELS 6 Xposition Yposition Zposition Zrotation Xrotation Yrotation
                      JOINT LeftFinger22
                      {
                        OFFSET 0.0071 -2.3249 -0.0142
                        CHANNELS 6 Xposition Yposition Zposition Zrotation Xrotation Yrotation
                        End Site
                        {
                          OFFSET -0.1475 -2.0882 0.0028
                        }
                      }
                    }
                  }
                  JOINT LeftFinger3
                  {
                    OFFSET 0.6113 -8.7231 -2.0637
                    CHANNELS 6 Xposition Yposition Zposition Zrotation Xrotation Yrotation
                    JOINT LeftFinger31
                    {
                      OFFSET -0.1927 -3.8059 -0.2383
                      CHANNELS 6 Xposition Yposition Zposition Zrotation Xrotation Yrotation
                      JOINT LeftFinger32
                      {
                        OFFSET -0.1091 -2.1688 -0.1362
                        CHANNELS 6 Xposition Yposition Zposition Zrotation Xrotation Yrotation
                        End Site
                        {
                          OFFSET -0.2358 -1.9176 -0.0906
                        }
                      }
                    }
                  }
                  JOINT LeftFinger4
                  {
                    OFFSET -0.6151 -8.0947 -3.5641
                    CHANNELS 6 Xposition Yposition Zposition Zrotation Xrotation Yrotation
                    JOINT LeftFinger41
                    {
                      OFFSET -0.4882 -2.341 -0.6462
                      CHANNELS 6 Xposition Yposition Zposition Zrotation Xrotation Yrotation
                      JOINT LeftFinger42
                      {
                        OFFSET -0.3575 -1.7167 -0.4742
                        CHANNELS 6 Xposition Yposition Zposition Zrotation Xrotation Yrotation
                        End Site
                        {
                          OFFSET -0.4187 -1.5237 -0.3496
                        }
                      }
                    }
                  }
                  JOINT LeftFinger0
                  {
                    OFFSET -1.42 -1.8761 1.4223
                    CHANNELS 6 Xposition Yposition Zposition Zrotation Xrotation Yrotation
                    JOINT LeftFinger01
                    {
                      OFFSET -1.1471 -3.4929 2.6334
                      CHANNELS 6 Xposition Yposition Zposition Zrotation Xrotation Yrotation
                      JOINT LeftFinger02
                      {
                        OFFSET -0.823 -2.3 1.6571
                        CHANNELS 6 Xposition Yposition Zposition Zrotation Xrotation Yrotation
                        End Site
                        {
                          OFFSET -0.5822 -1.6914 1.1582
                        }
                      }
                    }
                  }
                }
              }
            }
          }
          JOINT RightCollar
          {
            OFFSET -2.2603 21.606 7.4023
            CHANNELS 6 Xposition Yposition Zposition Zrotation Xrotation Yrotation
            JOINT RightShoulder
            {
              OFFSET -13.5187 -1.1334 -5.0155
              CHANNELS 6 Xposition Yposition Zposition Zrotation Xrotation Yrotation
              JOINT RightElbow
              {
                OFFSET 0.0994 -28.0499 -0.2431
                CHANNELS 6 Xposition Yposition Zposition Zrotation Xrotation Yrotation
                JOINT RightWrist
                {
                  OFFSET -0.0679 -23.3996 -0.1402
                  CHANNELS 6 Xposition Yposition Zposition Zrotation Xrotation Yrotation
                  JOINT RightFinger1
                  {
                    OFFSET -0.7932 -9.0691 2.5189
                    CHANNELS 6 Xposition Yposition Zposition Zrotation Xrotation Yrotation
                    JOINT RightFinger11
                    {
                      OFFSET 0.8272 -3.3923 0.5977
                      CHANNELS 6 Xposition Yposition Zposition Zrotation Xrotation Yrotation
                      JOINT RightFinger12
                      {
                        OFFSET 0.565 -2.3158 0.4082
                        CHANNELS 6 Xposition Yposition Zposition Zrotation Xrotation Yrotation
                        End Site
                        {
                          OFFSET 0.4919 -1.6479 0.2673
                        }
                      }
                    }
                  }
                  JOINT RightFinger2
                  {
                    OFFSET -0.916 -9.2044 0.2193
                    CHANNELS 6 Xposition Yposition Zposition Zrotation Xrotation Yrotation
                    JOINT RightFinger21
                    {
                      OFFSET -0.0117 -4.1944 -0.0248
                      CHANNELS 6 Xposition Yposition Zposition Zrotation Xrotation Yrotation
                      JOINT RightFinger22
                      {
                        OFFSET -0.0071 -2.3249 -0.0142
                        CHANNELS 6 Xposition Yposition Zposition Zrotation Xrotation Yrotation
                        End Site
                        {
                          OFFSET 0.1475 -2.0882 0.0028
                        }
                      }
                    }
                  }
                  JOINT RightFinger3
                  {
                    OFFSET -0.6113 -8.7231 -2.0637
                    CHANNELS 6 Xposition Yposition Zposition Zrotation Xrotation Yrotation
                    JOINT RightFinger31
                    {
                      OFFSET 0.1927 -3.8059 -0.2383
                      CHANNELS 6 Xposition Yposition Zposition Zrotation Xrotation Yrotation
                      JOINT RightFinger32
                      {
                        OFFSET 0.1091 -2.1688 -0.1362
                        CHANNELS 6 Xposition Yposition Zposition Zrotation Xrotation Yrotation
                        End Site
                        {
                          OFFSET 0.2358 -1.9176 -0.0906
                        }
                      }
                    }
                  }
                  JOINT RightFinger4
                  {
                    OFFSET 0.6151 -8.0947 -3.564
                    CHANNELS 6 Xposition Yposition Zposition Zrotation Xrotation Yrotation
                    JOINT RightFinger41
                    {
                      OFFSET 0.4882 -2.341 -0.6462
                      CHANNELS 6 Xposition Yposition Zposition Zrotation Xrotation Yrotation
                      JOINT RightFinger42
                      {
                        OFFSET 0.3574 -1.7166 -0.4742
                        CHANNELS 6 Xposition Yposition Zposition Zrotation Xrotation Yrotation
                        End Site
                        {
                          OFFSET 0.4187 -1.5237 -0.3496
                        }
                      }
                    }
                  }
                  JOINT RightFinger0
                  {
                    OFFSET 1.4199 -1.8761 1.4221
                    CHANNELS 6 Xposition Yposition Zposition Zrotation Xrotation Yrotation
                    JOINT RightFinger01
                    {
                      OFFSET 1.1472 -3.4929 2.6336
                      CHANNELS 6 Xposition Yposition Zposition Zrotation Xrotation Yrotation
                      JOINT RightFinger02
                      {
                        OFFSET 0.8229 -2.3 1.6571
                        CHANNELS 6 Xposition Yposition Zposition Zrotation Xrotation Yrotation
                        End Site
                        {
                          OFFSET 0.5822 -1.6914 1.1582
                        }
                      }
                    }
                  }
                }
              }
            }
          }
        }
      }
    }
    JOINT RightHip
    {
      OFFSET -9.412 3.9771 -0.7758
      CHANNELS 6 Xposition Yposition Zposition Zrotation Xrotation Yrotation
      JOINT RightKnee
      {
        OFFSET -0.7531 -40.938 0
        CHANNELS 6 Xposition Yposition Zposition Zrotation Xrotation Yrotation
        JOINT RightAnkle
        {
          OFFSET 0 -40.1986 0
          CHANNELS 6 Xposition Yposition Zposition Zrotation Xrotation Yrotation
          JOINT RightToe
          {
            OFFSET 0 -4.4182 9.239
            CHANNELS 6 Xposition Yposition Zposition Zrotation Xrotation Yrotation
            End Site
            {
              OFFSET 0 0 6.1981
            }
          }
        }
      }
    }
    JOINT LeftHip
    {
      OFFSET 9.4119 3.9773 -0.7758
      CHANNELS 6 Xposition Yposition Zposition Zrotation Xrotation Yrotation
      JOINT LeftKnee
      {
        OFFSET 0.7532 -40.9383 0
        CHANNELS 6 Xposition Yposition Zposition Zrotation Xrotation Yrotation
        JOINT LeftAnkle
        {
          OFFSET 0 -40.1986 0
          CHANNELS 6 Xposition Yposition Zposition Zrotation Xrotation Yrotation
          JOINT LeftToe
          {
            OFFSET 0 -4.4182 9.239
            CHANNELS 6 Xposition Yposition Zposition Zrotation Xrotation Yrotation
            End Site
            {
              OFFSET 0 0 6.1981
            }
          }
        }
      }
    }
  }
}
MOTION
Frames:	4
Frame Time:	0.0333333
-1.00797 -1.92845 16.0756 0 0 -0 4.88498e-015 78.7191 0 -7.28012 13.5983 -6.71089 -1.77636e-015 8.7983 -4.7612 3.26668 4.49887 -2.40364 8.88179e-016 8.0291 0.4195 6.75075 8.84863 -5.08424 4.44089e-016 9.9351 -2.2114 6.75077 8.84864 -5.08425 0 22.3885 -0.4656 -4.68281 -9.43222 -29.4076 -0.0001 12.643 3.4389 1.70877 -3.71761 -23.6909 2.2603 21.606 7.4023 19.3919 -0.0687225 -13.1147 13.5163 -1.1332 -5.0146 -7.45425 8.7467 11.3527 -0.0995 -28.05 -0.2431 -12.3275 -15.2162 -14.6385 0.0679 -23.3996 -0.1402 -8.55467 19.0361 -7.16306 0.7932 -9.069 2.5189 -0.343098 8.01298 -4.70229 -0.8272 -3.3923 0.5977 -0.230184 -2.90113 -1.21464 -0.5649 -2.3158 0.4082 0.934299 -0.580505 0.0548091 0.9159 -9.2044 0.2193 2.36508 -0.772919 -2.84327 0.0117 -4.1944 -0.0248 -0.18942 -1.00147 0.221069 0.0071 -2.3249 -0.0142 3.02781 -1.88238 0.348492 0.6113 -8.7231 -2.0637 3.58699 -2.82996 1.11692 -0.1927 -3.8059 -0.2383 -0.211907 -1.22128 0.443575 -0.1091 -2.1688 -0.1362 3.20478 -2.18324 0.487224 -0.6151 -8.0947 -3.5641 2.70488 -3.54179 2.00085 -0.4882 -2.341 -0.6462 -0.0697798 -1.97084 1.6865 -0.3575 -1.7167 -0.4742 3.00686 -2.01066 0.549799 -1.42 -1.8761 1.4223 7.12665 12.7395 -3.76208 -1.1471 -3.4929 2.6334 -2.76413 -0.17647 0.333167 -0.823 -2.3 1.6571 -0.0109318 -0.0143783 0.00294525 -2.2603 21.606 7.4023 -14.4443 0.216762 3.55647 -13.5187 -1.1334 -5.0155 1.43831 10.8907 -14.5207 0.0994 -28.0499 -0.2431 8.8202 -10.3929 23.7739 -0.0679 -23.3996 -0.1402 6.73292 -6.44132 25.0627 -0.7932 -9.0691 2.5189 7.75206 9.55548 4.09836 0.8272 -3.3923 0.5977 -0.0375933 -0.338783 0.391973 0.565 -2.3158 0.4082 4.21932 1.4388 -0.120791 -0.916 -9.2044 0.2193 3.02179 1.62148 3.11872 -0.0117 -4.1944 -0.0248 2.722 0.927215 0.042879 -0.0071 -2.3249 -0.0142 1.939 0.66028 0.0350057 -0.6113 -8.7231 -2.0637 1.05385 0.0676251 -0.49715 0.1927 -3.8059 -0.2383 2.39911 0.927118 0.115927 0.1091 -2.1688 -0.1362 1.61059 0.621519 0.0822992 0.6151 -8.0947 -3.564 1.71357 -0.878142 -1.30681 0.4882 -2.341 -0.6462 0.145463 0.054137 0.0122775 0.3574 -1.7166 -0.4742 1.85529 0.69268 0.143007 1.4199 -1.8761 1.4221 -5.32901 16.1752 6.14762 1.1472 -3.4929 2.6336 0.772669 -0.692696 -0.801221 0.8229 -2.3 1.6571 -1.16586 2.63366 0.854938 -9.412 3.9771 -0.7758 16.0881 -15.165 7.17155 -0.7531 -40.938 3.55271e-015 0.476096 1.95058 0.133559 -1.33227e-015 -40.1986 0 -3.89212 0.499432 -8.31852 -8.88179e-016 -4.4182 9.239 0.14633 1.00225 -0.0590125 9.4119 3.9773 -0.7758 4.64079 -0.700434 -11.1166 0.7532 -40.9383 -1.77636e-015 0.162847 6.40223 0.503063 0 -40.1986 2.66454e-015 6.45378 -17.1757 -4.12979 0 -4.4182 9.239 0.0747408 -0.574506 0.000513548 
-1.01778 -1.92905 16.0824 0 0 -0 4.88498e-015 78.7191 0 -7.29599 13.612 -6.69727 1.77636e-015 8.7983 -4.7612 3.28001 4.51709 -2.41261 0 8.0291 0.4195 6.77922 8.88386 -5.1045 -4.44089e-016 9.9351 -2.2114 6.77925 8.88387 -5.10452 0 22.3885 -0.4656 -4.56876 -9.53456 -29.5406 -0.0001 12.643 3.4389 1.74054 -3.72071 -23.8182 2.2603 21.606 7.4023 19.3897 -0.0689005 -13.1168 13.5163 -1.1332 -5.0146 -7.45037 8.76588 11.3593 -0.0995 -28.05 -0.2431 -12.3322 -15.2197 -14.6544 0.0679 -23.3996 -0.1402 -8.56177 19.0643 -7.01181 0.7932 -9.069 2.5189 -0.34575 8.01493 -4.70206 -0.8272 -3.3923 0.5977 -0.230143 -2.90004 -1.21408 -0.5649 -2.3158 0.4082 0.931684 -0.578886 0.0546458 0.9159 -9.2044 0.2193 2.35925 -0.768866 -2.84394 0.0117 -4.1944 -0.0248 -0.188944 -0.998771 0.220529 0.0071 -2.3249 -0.0142 3.02175 -1.87883 0.347972 0.6113 -8.7231 -2.0637 3.58112 -2.82609 1.11564 -0.1927 -3.8059 -0.2383 -0.211433 -1.21841 0.442637 -0.1091 -2.1688 -0.1362 3.19975 -2.18015 0.487176 -0.6151 -8.0947 -3.5641 2.69802 -3.53749 1.99924 -0.4882 -2.341 -0.6462 -0.0697351 -1.96812 1.68438 -0.3575 -1.7167 -0.4742 3.00115 -2.0069 0.548664 -1.42 -1.8761 1.4223 7.12678 12.7394 -3.76211 -1.1471 -3.4929 2.6334 -2.76419 -0.176455 0.333208 -0.823 -2.3 1.6571 -0.0109127 -0.0143679 0.00294563 -2.2603 21.606 7.4023 -14.4448 0.217127 3.55009 -13.5187 -1.1334 -5.0155 1.43908 10.8872 -14.5199 0.0994 -28.0499 -0.2431 8.81032 -10.3958 23.7696 -0.0679 -23.3996 -0.1402 6.72296 -6.43761 25.0566 -0.7932 -9.0691 2.5189 7.7519 9.55542 4.0984 0.8272 -3.3923 0.5977 -0.0376057 -0.33882 0.392002 0.565 -2.3158 0.4082 4.21946 1.43886 -0.120869 -0.916 -9.2044 0.2193 3.02813 1.62404 3.11871 -0.0117 -4.1944 -0.0248 2.72871 0.929488 0.0429123 -0.0071 -2.3249 -0.0142 1.94595 0.662653 0.0351094 -0.6113 -8.7231 -2.0637 1.06015 0.0700047 -0.496568 0.1927 -3.8059 -0.2383 2.40513 0.929441 0.11616 0.1091 -2.1688 -0.1362 1.61677 0.623905 0.0825774 0.6151 -8.0947 -3.564 1.72009 -0.875906 -1.30611 0.4882 -2.341 -0.6462 0.152278 0.0566664 0.0128494 0.3574 -1.7166 -0.4742 1.85689 0.693468 0.14348 1.4199 -1.8761 1.4221 -5.32918 16.1751 6.14763 1.1472 -3.4929 2.6336 0.772709 -0.692681 -0.801326 0.8229 -2.3 1.6571 -1.16585 2.63365 0.854946 -9.412 3.9771 -0.7758 16.1084 -15.1654 7.17674 -0.7531 -40.938 0 0.472619 1.94293 0.128298 -5.55112e-016 -40.1986 0 -3.89657 0.488521 -8.31752 0 -4.4182 9.239 0.149067 1.02162 -0.0601594 9.4119 3.9773 -0.7758 4.66862 -0.699275 -11.0909 0.7532 -40.9383 0 0.16204 6.36184 0.497864 0 -40.1986 1.77636e-015 6.43759 -17.1555 -4.15823 0 -4.4182 9.239 0.0744101 -0.57192 0.000521693 
-1.02701 -1.92975 16.0858 0 0 -0 4.88498e-015 78.7191 0 -7.30391 13.6206 -6.68604 -1.77636e-015 8.7983 -4.7612 3.28795 4.52289 -2.41546 -8.88179e-016 8.0291 0.4195 6.79572 8.89498 -5.11129 4.44089e-016 9.9351 -2.2114 6.79574 8.895 -5.1113 0 22.3885 -0.4656 -4.45672 -9.61143 -29.6841 -0.0001 12.643 3.4389 1.7887 -3.7155 -23.9607 2.2603 21.606 7.4023 19.3865 -0.0690168 -13.1195 13.5163 -1.1332 -5.0146 -7.44616 8.78188 11.3656 -0.0995 -28.05 -0.2431 -12.3358 -15.2221 -14.6672 0.0679 -23.3996 -0.1402 -8.56986 19.0844 -6.88765 0.7932 -9.069 2.5189 -0.34838 8.01689 -4.70184 -0.8272 -3.3923 0.5977 -0.230033 -2.89893 -1.21356 -0.5649 -2.3158 0.4082 0.929089 -0.577278 0.0544821 0.9159 -9.2044 0.2193 2.3534 -0.764791 -2.84459 0.0117 -4.1944 -0.0248 -0.188507 -0.996123 0.219993 0.0071 -2.3249 -0.0142 3.01569 -1.87528 0.347462 0.6113 -8.7231 -2.0637 3.57527 -2.82223 1.11438 -0.1927 -3.8059 -0.2383 -0.211005 -1.21555 0.441692 -0.1091 -2.1688 -0.1362 3.19473 -2.17702 0.487084 -0.6151 -8.0947 -3.5641 2.69113 -3.53318 1.99766 -0.4882 -2.341 -0.6462 -0.0696283 -1.96545 1.68227 -0.3575 -1.7167 -0.4742 2.99548 -2.00314 0.54754 -1.42 -1.8761 1.4223 7.12691 12.7392 -3.76215 -1.1471 -3.4929 2.6334 -2.76413 -0.176521 0.333113 -0.823 -2.3 1.6571 -0.0109148 -0.0143647 0.00295345 -2.2603 21.606 7.4023 -14.4452 0.217547 3.5437 -13.5187 -1.1334 -5.0155 1.43916 10.8861 -14.5198 0.0994 -28.0499 -0.2431 8.80046 -10.3986 23.7653 -0.0679 -23.3996 -0.1402 6.71292 -6.43488 25.053 -0.7932 -9.0691 2.5189 7.75179 9.5554 4.0984 0.8272 -3.3923 0.5977 -0.0375975 -0.338875 0.392067 0.565 -2.3158 0.4082 4.21947 1.43885 -0.120794 -0.916 -9.2044 0.2193 3.03449 1.62659 3.11867 -0.0117 -4.1944 -0.0248 2.73543 0.93179 0.0429745 -0.0071 -2.3249 -0.0142 1.95288 0.665028 0.0351888 -0.6113 -8.7231 -2.0637 1.0665 0.0724099 -0.495997 0.1927 -3.8059 -0.2383 2.41115 0.931786 0.116414 0.1091 -2.1688 -0.1362 1.62288 0.626258 0.082859 0.6151 -8.0947 -3.564 1.72666 -0.873642 -1.30542 0.4882 -2.341 -0.6462 0.159025 0.0591889 0.0134175 0.3574 -1.7166 -0.4742 1.8585 0.694257 0.143965 1.4199 -1.8761 1.4221 -5.32933 16.175 6.14762 1.1472 -3.4929 2.6336 0.772729 -0.69268 -0.801318 0.8229 -2.3 1.6571 -1.16587 2.63365 0.854956 -9.412 3.9771 -0.7758 16.1203 -15.172 7.1811 -0.7531 -40.938 0 0.47233 1.94982 0.124431 -1.11022e-015 -40.1986 3.55271e-015 -3.90311 0.475092 -8.31851 8.88178e-016 -4.4182 9.239 0.151808 1.04101 -0.0612783 9.4119 3.9773 -0.7758 4.67874 -0.737225 -11.0653 0.7532 -40.9383 0 0.161238 6.42666 0.495472 8.88178e-016 -40.1986 8.88179e-016 6.42618 -17.1943 -4.18343 8.88178e-016 -4.4182 9.239 0.0740748 -0.569334 0.000528435 
-1.03605 -1.9306 16.0859 0 0 -0 4.88498e-015 78.7191 0 -7.30564 13.6276 -6.67595 1.77636e-015 8.7983 -4.7612 3.29219 4.52237 -2.41523 -8.88179e-016 8.0291 0.4195 6.80417 8.89372 -5.11111 -4.44089e-016 9.9351 -2.2114 6.8042 8.89375 -5.11113 -1.77636e-015 22.3885 -0.4656 -4.34859 -9.67853 -29.8287 -0.0001 12.643 3.4389 1.85713 -3.71406 -24.1084 2.2603 21.606 7.4023 19.3825 -0.0691986 -13.1228 13.5163 -1.1332 -5.0146 -7.44114 8.79329 11.3713 -0.0995 -28.05 -0.2431 -12.3382 -15.2235 -14.6758 0.0679 -23.3996 -0.1402 -8.57654 19.0965 -6.80364 0.7932 -9.069 2.5189 -0.351057 8.01882 -4.70161 -0.8272 -3.3923 0.5977 -0.229925 -2.89782 -1.21298 -0.5649 -2.3158 0.4082 0.926463 -0.575637 0.0543033 0.9159 -9.2044 0.2193 2.34756 -0.760721 -2.84528 0.0117 -4.1944 -0.0248 -0.187977 -0.993424 0.219483 0.0071 -2.3249 -0.0142 3.00961 -1.87171 0.346935 0.6113 -8.7231 -2.0637 3.5694 -2.81833 1.1131 -0.1927 -3.8059 -0.2383 -0.21062 -1.21268 0.440743 -0.1091 -2.1688 -0.1362 3.18967 -2.17392 0.487029 -0.6151 -8.0947 -3.5641 2.68424 -3.52887 1.996 -0.4882 -2.341 -0.6462 -0.0696386 -1.96275 1.6802 -0.3575 -1.7167 -0.4742 2.98974 -1.99936 0.546409 -1.42 -1.8761 1.4223 7.12703 12.739 -3.76219 -1.1471 -3.4929 2.6334 -2.76412 -0.176503 0.333107 -0.823 -2.3 1.6571 -0.0109222 -0.014367 0.00294994 -2.2603 21.606 7.4023 -14.4457 0.217993 3.53729 -13.5187 -1.1334 -5.0155 1.43934 10.885 -14.5196 0.0994 -28.0499 -0.2431 8.79263 -10.3993 23.763 -0.0679 -23.3996 -0.1402 6.70312 -6.43532 25.0516 -0.7932 -9.0691 2.5189 7.75166 9.55533 4.09843 0.8272 -3.3923 0.5977 -0.0376681 -0.338924 0.392097 0.565 -2.3158 0.4082 4.21959 1.43891 -0.120878 -0.916 -9.2044 0.2193 3.04082 1.62914 3.11866 -0.0117 -4.1944 -0.0248 2.74215 0.934079 0.0430268 -0.0071 -2.3249 -0.0142 1.95984 0.667382 0.0352687 -0.6113 -8.7231 -2.0637 1.07283 0.0747992 -0.49542 0.1927 -3.8059 -0.2383 2.41718 0.934118 0.116648 0.1091 -2.1688 -0.1362 1.62903 0.628652 0.0831384 0.6151 -8.0947 -3.564 1.73319 -0.871401 -1.30473 0.4882 -2.341 -0.6462 0.165796 0.0617112 0.0139758 0.3574 -1.7166 -0.4742 1.86013 0.695042 0.14445 1.4199 -1.8761 1.4221 -5.32951 16.1748 6.14761 1.1472 -3.4929 2.6336 0.772722 -0.692674 -0.801327 0.8229 -2.3 1.6571 -1.16587 2.63367 0.854997 -9.412 3.9771 -0.7758 16.1263 -15.1771 7.1846 -0.7531 -40.938 3.55271e-015 0.47201 1.94714 0.120745 -7.77156e-016 -40.1986 0 -3.90968 0.467129 -8.31922 4.44089e-016 -4.4182 9.239 0.154558 1.06039 -0.062421 9.4119 3.9773 -0.7758 4.68903 -0.736719 -11.0388 0.7532 -40.9383 -1.77636e-015 0.160748 6.4258 0.492237 8.88179e-016 -40.1986 0 6.41446 -17.2072 -4.21097 0 -4.4182 9.239 0.0737482 -0.566749 0.000528155 
